<svg enable-background="new 0 0 512 512" height="512" viewBox="0 0 48 48" width="512" xmlns="http://www.w3.org/2000/svg"><g xmlns="http://www.w3.org/2000/svg"><path d="m21 5c0 12.83.19 12.73-.52 14a4 4 0 0 1 -3.48 2h-12a4 4 0 0 1 -4-4v-12a4 4 0 0 1 4-4h12a4 4 0 0 1 4 4z" fill="#6fabe6"/><path d="m21 5c0 14.42.25 13.27-.95 14a16 16 0 0 1 -16.05-16 4.09 4.09 0 0 1 .35-1.64l.65-.36h12a4 4 0 0 1 4 4z" fill="#6fabe6"/><path d="m47 5c0 12.83.19 12.73-.52 14a4 4 0 0 1 -3.48 2h-12a4 4 0 0 1 -4-4v-12a4 4 0 0 1 4-4h12a4 4 0 0 1 4 4z" fill="#ffde76"/><path d="m47 5c0 14.42.25 13.27-1 14a16 16 0 0 1 -16-16 4.09 4.09 0 0 1 .35-1.64l.65-.36h12a4 4 0 0 1 4 4z" fill="#ffde76"/><path d="m21 31c0 12.83.19 12.73-.52 14a4 4 0 0 1 -3.48 2h-12a4 4 0 0 1 -4-4v-12a4 4 0 0 1 4-4h12a4 4 0 0 1 4 4z" fill="#f26674"/><path d="m21 31c0 14.42.25 13.27-.95 14a16 16 0 0 1 -16.05-16 4.09 4.09 0 0 1 .35-1.64l.65-.36h12a4 4 0 0 1 4 4z" fill="#f26674"/><path d="m47 31c0 12.83.19 12.73-.52 14a4 4 0 0 1 -3.48 2h-12a4 4 0 0 1 -4-4v-12a4 4 0 0 1 4-4h12a4 4 0 0 1 4 4z" fill="#9dcc6b"/><path d="m47 31c0 14.42.25 13.27-1 14a16 16 0 0 1 -16-16 4.09 4.09 0 0 1 .35-1.64l.65-.36h12a4 4 0 0 1 4 4z" fill="#9dcc6b"/><g fill="#edebf2"><path d="m16 9h-3v-3a1 1 0 0 0 -1-1h-2a1 1 0 0 0 -1 1v3h-3a1 1 0 0 0 -1 1v2a1 1 0 0 0 1 1h3v3a1 1 0 0 0 1 1h2a1 1 0 0 0 1-1v-3h3a1 1 0 0 0 1-1v-2a1 1 0 0 0 -1-1z"/><path d="m16 39.12-2.17-2.12 2.17-2.12a1 1 0 0 0 0-1.42l-1.41-1.41a1 1 0 0 0 -1.42 0l-2.17 2.12-2.12-2.12a1 1 0 0 0 -1.42 0l-1.41 1.41a1 1 0 0 0 0 1.42l2.12 2.12-2.12 2.12a1 1 0 0 0 0 1.42l1.41 1.46a1 1 0 0 0 1.42 0l2.12-2.17 2.12 2.17a1 1 0 0 0 1.42 0l1.46-1.46a1 1 0 0 0 0-1.42z"/><rect height="12" rx="1" transform="matrix(0 1 -1 0 48 -26)" width="4" x="35" y="5"/><circle cx="37" cy="33" r="2"/><circle cx="37" cy="41" r="2"/></g></g></svg>