<svg enable-background="new 0 0 512 512" height="512" viewBox="0 0 512 512" width="512" xmlns="http://www.w3.org/2000/svg"><g fill="#f00"><path d="m256 481c-3.53 0-7.046-1.23-9.873-3.706-21.826-19.087-42.583-36.782-62.109-53.423-110.201-93.911-184.018-155.962-184.018-246.357 0-83.526 59.037-146.514 136-146.514 60.659 0 99.595 42.378 120 80.537 20.405-38.159 59.341-80.537 120-80.537 76.963 0 136 62.988 136 146.514 0 90.396-73.817 152.446-184.018 246.357-19.526 16.641-40.283 34.336-62.109 53.423-2.827 2.476-6.343 3.706-9.873 3.706z"/><path d="m265.873 477.294c21.826-19.087 42.583-36.782 62.109-53.423 110.201-93.911 184.018-155.962 184.018-246.357 0-83.526-59.037-146.514-136-146.514-60.659 0-99.595 42.378-120 80.537v369.463c3.53 0 7.046-1.23 9.873-3.706z"/></g></svg>