<svg enable-background="new 0 0 512 512" height="512" viewBox="0 0 512 512" width="512" xmlns="http://www.w3.org/2000/svg"><circle cx="256" cy="256" fill="#ff0" r="256"/><path d="m343.776 496.552c69.903-25.514 125.549-80.634 151.797-150.18l-180.729-180.729-46.201 50.707-115.497 89.572z" fill="#ff0"/><path d="m389.011 389.013c-12.279 12.279-32.19 12.279-44.47 0l-88.94-88.94c-12.279-12.279-12.279-32.191 0-44.47 12.279-12.279 32.191-12.279 44.47 0l88.94 88.94c12.282 12.28 12.282 32.189 0 44.47z" fill="#333"/><path d="m255.602 300.073 88.94 88.94c12.243 12.243 32.068 12.272 44.358.102l-133.4-133.399c-12.171 12.288-12.141 32.112.102 44.357z" fill="#333"/><path d="m288.954 155.546c-36.84-36.84-96.57-36.84-133.41 0-.036.036-.069.074-.105.11-36.733 36.848-36.7 96.496.105 133.299 36.804 36.805 96.451 36.836 133.299.105.036-.036.074-.067.11-.105 36.841-36.841 36.841-96.569.001-133.409z" fill="#ff0"/><path d="m155.441 155.655c-36.733 36.848-36.7 96.496.105 133.299 36.804 36.805 96.451 36.836 133.299.105z" fill="#ff0"/><g fill="#333"><path d="m222.249 330.723c-27.791 0-55.58-10.578-76.736-31.737-42.315-42.312-42.315-111.159 0-153.472 42.312-42.317 111.159-42.317 153.472 0 42.315 42.312 42.315 111.159 0 153.472-21.155 21.159-48.945 31.737-76.736 31.737zm0-188.582c-20.523 0-41.046 7.813-56.673 23.436-31.248 31.249-31.248 82.096 0 113.347 31.253 31.248 82.094 31.248 113.347 0 31.248-31.249 31.248-82.096 0-113.347-15.626-15.623-36.151-23.436-56.674-23.436z"/><path d="m278.812 279.028c-31.261 31.141-82.02 31.108-113.236-.105-31.211-31.215-31.244-81.977-.105-113.236l-20.061-20.061c-42.206 42.322-42.174 111.087.105 153.362 21.156 21.158 48.945 31.737 76.736 31.737 27.745 0 55.484-10.545 76.626-31.632z"/></g></svg>