<svg enable-background="new 0 0 512 512" height="512" viewBox="0 0 511 511.99542" width="512" xmlns="http://www.w3.org/2000/svg"><g fill="#f00" transform="translate(35)"><path d="m224.496094 15.996094-208 160v320h128v-112c.105468-35.304688 28.699218-63.894532 64-64h32c35.304687.105468 63.894531 28.695312 64 64v112h128v-320zm0 0"/><g><path d="m16.496094 511.996094h128c8.839844 0 16-7.164063 16-16v-112c.027344-26.5 21.503906-47.972656 48-48h32c26.5.027344 47.976562 21.5 48 48v112c0 8.835937 7.164062 16 16 16h128c8.839844 0 16-7.164063 16-16v-320c0-4.96875-2.308594-9.652344-6.246094-12.679688l-208-160c-5.75-4.421875-13.753906-4.421875-19.503906 0l-208 160c-3.9375 3.027344-6.246094 7.710938-6.25 12.679688v320c0 8.835937 7.164062 16 16 16zm16-328.121094 192-147.695312 192 147.695312v296.121094h-96v-96c-.046875-44.164063-35.835938-79.953125-80-80h-32c-44.160156.046875-79.949219 35.835937-80 80v96h-96zm0 0"/><path d="m229.21875 420.714844c-4.597656 4.570312-5.984375 11.457031-3.511719 17.449218 2.46875 5.988282 8.3125 9.898438 14.789063 9.898438 6.480468 0 12.320312-3.910156 14.792968-9.898438 2.472657-5.992187 1.085938-12.878906-3.511718-17.449218-6.320313-6-16.238282-6-22.558594 0zm0 0"/></g></g></svg>