<svg enable-background="new 0 0 512 512" height="512" viewBox="0 0 512 512" width="512" xmlns="http://www.w3.org/2000/svg"><g fill="#00e2ff"><path d="m511.342 501.574-73.78-178.607c-1.16-2.808-3.882-4.637-6.901-4.637h-349.322c-3.019 0-5.742 1.83-6.901 4.637l-73.781 178.607c-.961 2.324-.705 4.979.683 7.073 1.387 2.095 3.72 3.353 6.219 3.353h496.882c2.498 0 4.832-1.259 6.219-3.353 1.387-2.093 1.642-4.748.682-7.073z" xmlns="http://www.w3.org/2000/svg"/><path d="m480.641 512h23.8c2.498 0 4.832-1.259 6.219-3.353 1.387-2.093 1.643-4.748.683-7.073l-73.78-178.607c-1.16-2.808-3.882-4.637-6.901-4.637h-30.023z" xmlns="http://www.w3.org/2000/svg"/><g xmlns="http://www.w3.org/2000/svg"><path d="m123.166 385.691 25.459-67.528h-67.759c-3.019 0-5.742 1.83-6.901 4.637l-25.98 62.891z"/><path d="m430.188 318.163h-235.276l68.623 59.839h196.358l-22.803-55.201c-1.161-2.807-3.883-4.638-6.902-4.638z"/><path d="m461.655 382.269 1.414 3.422z"/></g></g><path d="m482.581 432.928-22.688-54.926h-196.359l-68.622-59.839h-46.034-5.858l-24.84 59.824h-67.011l-15.052 36.436-7.644 18.505h67.082l-32.593 78.905h60.979l52.35-128.175 150.966 128.175h89.128l-90.224-78.905z" fill="#fbad00" xmlns="http://www.w3.org/2000/svg"/><path d="m255.527 0c-89.032 0-161.464 72.977-161.464 162.678 0 30.924 8.352 63.733 24.827 97.515 13.036 26.734 31.175 54.161 53.91 81.52 38.572 46.415 76.553 76.214 78.152 77.461 1.348 1.051 2.961 1.574 4.575 1.574s3.228-.525 4.575-1.574c1.598-1.247 39.579-31.046 78.152-77.461 22.736-27.359 40.875-54.786 53.91-81.52 16.475-33.783 24.827-66.591 24.827-97.515 0-89.701-72.432-162.678-161.464-162.678zm0 100.798c33.92 0 61.418 27.705 61.418 61.88s-27.498 61.88-61.418 61.88-61.418-27.705-61.418-61.88 27.498-61.88 61.418-61.88z" fill="#ff0606" xmlns="http://www.w3.org/2000/svg"/><path d="m255.527 0c-5.313 0-10.566.268-15.749.775 81.668 8.002 145.715 77.555 145.715 161.903 0 30.924-8.352 63.733-24.827 97.515-13.036 26.734-31.175 54.161-53.91 81.52-26.454 31.833-52.626 55.846-66.978 68.197 6.575 5.658 10.672 8.872 11.173 9.263 1.348 1.051 2.961 1.574 4.575 1.574s3.228-.525 4.575-1.574c1.598-1.247 39.579-31.046 78.152-77.461 22.736-27.359 40.875-54.786 53.91-81.52 16.475-33.783 24.827-66.591 24.827-97.515.001-89.7-72.431-162.677-161.463-162.677z" fill="#e20000" xmlns="http://www.w3.org/2000/svg"/><path d="m123.941 511.833h203.316l-150.966-128.175z" fill="#00e2ff" xmlns="http://www.w3.org/2000/svg"/><path d="m424.884 378.002 22.689 54.926h35.008l-22.688-54.926z" fill="#fbad00" xmlns="http://www.w3.org/2000/svg"/><path d="m424.884 378.002h35.009l-22.803-55.201c-1.16-2.808-3.882-4.637-6.901-4.637h-30.023z" fill="#00e2ff" xmlns="http://www.w3.org/2000/svg"/></svg>