<svg enable-background="new 0 0 512 512" height="512" viewBox="0 0 49.499 49.499" width="512" xmlns="http://www.w3.org/2000/svg"><path d="m8.143 10.804c-.67.878-1.143 1.038-1.143.295v-1.348c0-1.933-1.567-3.5-3.5-3.5s-3.5 1.567-3.5 3.5v12c0 1.933 1.567 3.5 3.5 3.5h12c1.933 0 3.5-1.567 3.5-3.5s-1.567-3.5-3.5-3.5c0 0-.579 0-1.294 0s-.916-.817-.31-1.74c2.752-4.187 7.47-6.795 12.569-6.795 8.29 0 15.034 6.744 15.034 15.034 0 8.289-6.744 15.033-15.034 15.033-2.209 0-4 1.791-4 4s1.791 4 4 4c12.701.001 23.034-10.332 23.034-23.032 0-12.701-10.333-23.034-23.034-23.034-7.261-.001-14.02 3.45-18.322 9.087z" fill="#e90000" xmlns="http://www.w3.org/2000/svg"/></svg>