<svg enable-background="new 0 0 512 512" height="512" viewBox="0 0 496.159 496.159" width="512" xmlns="http://www.w3.org/2000/svg"><path d="m496.159 248.085c0-137.023-111.07-248.082-248.076-248.082-137.012-0-248.083 111.06-248.083 248.082 0 137.001 111.07 248.07 248.083 248.07 137.006 0 248.076-111.069 248.076-248.07z" fill="#e6e6e6"/><g fill="#333"><path d="m247.711 125.252c-3.41-1.851-7.559-1.688-10.813.426l-95.137 61.789h-35.164c-5.845 0-10.583 4.738-10.583 10.584v92.727c0 5.845 4.738 10.583 10.583 10.583h35.164l95.137 61.79c1.748 1.135 3.753 1.707 5.765 1.707 1.733 0 3.471-.425 5.049-1.281 3.41-1.852 5.534-5.421 5.534-9.301v-219.723c-.002-3.881-2.125-7.45-5.535-9.301z"/><path d="m282.701 319.271c.894 0 1.801-.162 2.685-.504 24.239-9.412 40.524-38.49 40.524-72.359 0-29.957-13.2-57.049-33.63-69.018-3.534-2.072-8.08-.885-10.153 2.65-2.073 3.536-.885 8.082 2.651 10.153 15.971 9.358 26.291 31.424 26.291 56.214 0 27.359-12.77 51.424-31.055 58.525-3.82 1.481-5.714 5.781-4.231 9.602 1.141 2.94 3.946 4.737 6.918 4.737z"/><path d="m302.073 350.217c.895 0 1.802-.162 2.684-.504 34.046-13.219 57.822-55.979 57.822-103.988 0-43.187-18.884-82.156-48.11-99.279-3.534-2.072-8.082-.885-10.152 2.652-2.073 3.535-.885 8.081 2.651 10.152 24.768 14.512 40.771 48.455 40.771 86.475 0 42.027-19.883 79.1-48.353 90.154-3.82 1.481-5.715 5.781-4.231 9.602 1.14 2.937 3.945 4.736 6.918 4.736z"/></g><path d="m322.025 379.715c-3.005 0-5.841-1.818-6.994-4.788-1.499-3.861.416-8.206 4.277-9.706 38.764-15.051 65.837-64.404 65.837-120.019 0-50.136-21.609-95.192-55.052-114.786-3.574-2.094-4.773-6.688-2.68-10.262 2.094-3.574 6.688-4.774 10.263-2.68 37.948 22.232 62.469 72.369 62.469 127.728 0 61.66-31.009 116.764-75.409 134.002-.89.347-1.808.511-2.711.511z" fill="#4d4d4d"/></svg>