<svg enable-background="new 0 0 512 512" height="512" viewBox="0 0 967.5 967.5" width="512" xmlns="http://www.w3.org/2000/svg"><path d="m120.1 967.5c-30.7 0-61.4-11.699-84.9-35.1-46.8-46.9-46.8-122.9 0-169.801l522.601-522.599h-230.701c-66.3 0-120-53.7-120-120s53.7-120 120-120h520.401.2c19.8 0 39.5 5 56.899 14.4 0 0 .101 0 .101.1 21.6 11.8 39.199 30.1 50.199 52.1 8.301 16.5 12.5 35 12.5 53.4v520.4c0 66.299-53.699 120-120 120-66.3 0-120-53.701-120-120v-230.7l-522.5 522.601c-23.4 23.5-54.1 35.199-84.8 35.199z" fill="#e6e6e6"/></svg>