<svg enable-background="new 0 0 512 512" height="512" viewBox="0 0 32.75 32.75" width="512" xmlns="http://www.w3.org/2000/svg"><path d="m30.434 15.938c-.791.933-1.917 1.411-3.052 1.411-.913 0-1.834-.312-2.587-.951l-4.421-3.753v16.105c0 2.209-1.791 4-4 4s-4-1.791-4-4v-16.104l-4.42 3.754c-1.683 1.431-4.208 1.226-5.639-.459-1.43-1.684-1.224-4.208.46-5.638l11.01-9.351c1.493-1.27 3.686-1.27 5.178 0l11.011 9.351c1.684 1.427 1.889 3.952.46 5.635z" fill="#246cb6" xmlns="http://www.w3.org/2000/svg"/></svg>