<svg enable-background="new 0 0 512 512" height="512" viewBox="0 0 97.536 97.536" width="512" xmlns="http://www.w3.org/2000/svg"><circle cx="48.768" cy="48.768" fill="#e6e6e6" r="48.768"/><g fill="#333" transform="matrix(.7 0 0 .7 14.6304 14.630549)"><path d="m1.5 19.546h41.758c.398 0 .779-.158 1.061-.439s.439-.663.439-1.061v-9.887c0-.829-.672-1.5-1.5-1.5h-41.758c-.828 0-1.5.671-1.5 1.5v9.889c0 .827.672 1.498 1.5 1.498z"/><path d="m1.5 43.324h41.758c.398 0 .779-.158 1.061-.439s.439-.663.439-1.061v-9.888c0-.829-.672-1.5-1.5-1.5h-41.758c-.828 0-1.5.671-1.5 1.5v9.888c0 .827.672 1.5 1.5 1.5z"/><path d="m95.977 77.989h-94.477c-.828 0-1.5.671-1.5 1.5v9.889c0 .829.672 1.5 1.5 1.5h94.477c.398 0 .779-.158 1.062-.439.282-.28.438-.662.438-1.061v-9.889c0-.829-.672-1.5-1.5-1.5z"/><path d="m1.522 54.211c-.828 0-1.5.672-1.5 1.5v9.889c0 .828.672 1.5 1.5 1.5h94.514c.397 0 .778-.158 1.062-.439.281-.281.438-.663.438-1.061v-9.889c0-.828-.672-1.5-1.5-1.5z"/><path d="m96.499 6.659h-40.794c-.54 0-.979.438-.979.978v34.795c0 .54.438.978.979.978h40.795c.54 0 .979-.438.979-.978v-34.796c-.002-.54-.44-.977-.98-.977zm-12.09 19.299-10.854 8.539c-.211.166-.47.251-.728.251-.177 0-.353-.039-.515-.118-.405-.197-.662-.607-.662-1.058v-17.077c0-.451.257-.861.662-1.058.404-.196.887-.146 1.24.134l10.855 8.539c.283.223.447.564.447.924s-.163.7-.445.924z"/></g></svg>