<svg enable-background="new 0 0 512 512" height="512" viewBox="0 0 512 512" width="512" xmlns="http://www.w3.org/2000/svg"><circle cx="256" cy="256" fill="#246cb6" r="256"/><g fill="#fff8f8" transform="matrix(.81 0 0 .81 48.64 48.640091)"><path d="m381.156 122.88h-250.312c-9.426 0-17.067 7.64-17.067 17.067v232.107c0 9.426 7.64 17.067 17.067 17.067h250.311c9.426 0 17.067-7.64 17.067-17.067v-232.107c0-9.427-7.64-17.067-17.066-17.067zm-17.067 232.107h-216.178v-197.974h216.178z"/><path d="m73.956 151.324c-9.427 0-17.067 7.64-17.067 17.067v175.218c0 9.427 7.64 17.067 17.067 17.067 9.426 0 17.067-7.64 17.067-17.067v-175.218c-.001-9.426-7.641-17.067-17.067-17.067z"/><path d="m17.067 179.769c-9.427 0-17.067 7.64-17.067 17.067v118.329c0 9.426 7.64 17.067 17.067 17.067s17.067-7.64 17.067-17.067v-118.329c-.001-9.427-7.641-17.067-17.067-17.067z"/><path d="m438.044 151.324c-9.426 0-17.067 7.64-17.067 17.067v175.218c0 9.427 7.64 17.067 17.067 17.067s17.067-7.64 17.067-17.067v-175.218c0-9.426-7.64-17.067-17.067-17.067z"/><path d="m494.933 179.769c-9.426 0-17.067 7.64-17.067 17.067v118.329c0 9.426 7.64 17.067 17.067 17.067s17.067-7.641 17.067-17.068v-118.328c0-9.427-7.64-17.067-17.067-17.067z"/></g></svg>